<?xml version="1.0" encoding="utf-8"?>
<!-- Generator: Adobe Illustrator 16.0.0, SVG Export Plug-In . SVG Version: 6.00 Build 0)  -->
<!DOCTYPE svg PUBLIC "-//W3C//DTD SVG 1.1//EN" "http://www.w3.org/Graphics/SVG/1.1/DTD/svg11.dtd">
<svg version="1.1" id="Layer_1" xmlns="http://www.w3.org/2000/svg" xmlns:xlink="http://www.w3.org/1999/xlink" x="0px" y="0px"
	 width="2048px" height="1024px" viewBox="0 0 2048 1024" enable-background="new 0 0 2048 1024" xml:space="preserve">
<path d="M797.206,769.876H515.219c-83.108,0-160.4-86.566-160.4-185.149v-71.532h439.122c71.06,0,128.653-57.426,128.653-128.264
	c0-70.868-57.598-128.31-128.653-128.31H354.819V129.909C354.819,58.185,301.088,0,230.011,0
	c-71.012,0-128.61,58.185-128.61,129.909v454.822c0,243.587,183.138,440.77,409.538,440.77h281.952
	c71.063,0,129.707-57.191,129.707-128.911C922.594,824.812,868.263,769.876,797.206,769.876z"/>
<path fill="#FFFFFF" d="M1821.206,769.876h-281.986c-83.108,0-160.4-86.566-160.4-185.149v-71.532h439.122
	c71.06,0,128.653-57.426,128.653-128.264c0-70.868-57.598-128.31-128.653-128.31h-439.122V129.908
	C1378.819,58.185,1325.088,0,1254.011,0c-71.012,0-128.61,58.185-128.61,129.908v454.822c0,243.587,183.138,440.77,409.538,440.77
	h281.952c71.063,0,129.707-57.191,129.707-128.911C1946.594,824.812,1892.263,769.876,1821.206,769.876z"/>
</svg>
